<?xml version="1.0" encoding="utf-8"?>
<svg xmlns="http://www.w3.org/2000/svg" viewBox="-7.2 -10.2 83 83" data-asc="0.976" width="100px" height="100px" preserveAspectRatio="none">
  <ellipse style="stroke: rgb(11, 15, 20); fill: rgb(11, 15, 20);" cx="34.2" cy="31.3" rx="39.977" ry="40.652"/>
  <g fill="#000000" style="" transform="matrix(0.975979, 0, 0, 0.975979, 0.621518, 0.951857)">
    <g transform="translate(0, 0)">
      <path d="M32.50 34.20L31.90 42.05Q30.60 44.20 28.63 45.88Q26.65 47.55 23.98 48.52Q21.30 49.50 17.85 49.50Q12.65 49.45 8.60 47.20Q4.55 44.95 2.28 40.88Q0 36.80 0 31.25Q0 25.80 2.25 21.72Q4.50 17.65 8.58 15.37Q12.65 13.10 18.15 13.10Q21.85 13.10 24.83 14.07Q27.80 15.05 30 16.50L31 23.55L30.55 23.55Q29.45 19.15 26.05 16.87Q22.65 14.60 18.15 14.60Q13.75 14.60 10.53 16.67Q7.30 18.75 5.53 22.47Q3.75 26.20 3.75 31.20Q3.75 36.20 5.53 39.95Q7.30 43.70 10.48 45.80Q13.65 47.90 17.85 48Q21.40 48 24.43 46.67Q27.45 45.35 29.50 42.32Q31.55 39.30 32.10 34.20L32.50 34.20ZM49.45 29.55L63.65 46.25Q64.70 47.25 65.78 47.75Q66.85 48.25 68.40 48.30L68.40 48.80L66.25 48.80Q65.75 48.80 64.83 48.72Q63.90 48.65 62.83 48.38Q61.75 48.10 60.67 47.52Q59.60 46.95 58.75 45.95Q58.75 45.95 57.88 44.90Q57 43.85 55.63 42.20Q54.25 40.55 52.73 38.67Q51.20 36.80 49.83 35.15Q48.45 33.50 47.58 32.45Q46.70 31.40 46.70 31.40L49.45 29.55M63.90 14.15L48.95 31.40L46.70 31.40L60.45 14.15L63.90 14.15M67.35 13.80L67.35 14.25L67.15 14.25Q65.50 14.25 64.08 14.90Q62.65 15.55 61.65 16.70L58.50 16.60Q59.15 15.75 58.73 15.00Q58.30 14.25 57.30 14.25L56.80 14.25L56.80 13.80L67.15 13.80L67.35 13.80M45.10 13.80L45.10 48.80L41.85 48.80L41.85 13.80L45.10 13.80M42 45.15L42 48.80L38 48.80L38 48.30Q38 48.30 38.33 48.30Q38.65 48.30 38.65 48.30Q39.95 48.30 40.88 47.38Q41.80 46.45 41.85 45.15L42 45.15M42 17.45L41.85 17.45Q41.80 16.15 40.88 15.22Q39.95 14.30 38.65 14.30Q38.65 14.30 38.33 14.30Q38 14.30 38 14.30L38 13.80L42 13.80L42 17.45M44.95 45.15L45.10 45.15Q45.15 46.45 46.08 47.38Q47 48.30 48.30 48.30Q48.30 48.30 48.60 48.30Q48.90 48.30 48.95 48.30L48.95 48.80L44.95 48.80L44.95 45.15M44.95 17.45L44.95 13.80L48.95 13.80L48.95 14.30Q48.90 14.30 48.60 14.30Q48.30 14.30 48.30 14.30Q47 14.30 46.08 15.22Q45.15 16.15 45.10 17.45L44.95 17.45Z" style="fill: rgb(230, 237, 243);"/>
    </g>
  </g>
</svg>